<?xml version="1.0" encoding="UTF-8" standalone="no"?>
<svg
   version="1.1"
   width="867.12103"
   height="847.31274"
   viewBox="0 0 867.12103 847.31274"
   xmlns="http://www.w3.org/2000/svg"
   xmlns:svg="http://www.w3.org/2000/svg">

  <title >Logo</title>
  <path
     d="m 655.95343,68.375325 c 1.61,0.49 2.38,0.63 3.71,0.63 4.76,0 8.05,-2.52 17.22,-13.02 5.53,0 9.66,0.07 12.39,0.28 -0.14,0.84 -0.28,1.68 -0.35,2.52 -0.14,0.7 -0.35,2.17 -0.56,3.71 -0.14,1.33 -0.35,2.59 -0.42,2.87 -0.21,1.19 -0.35,2.31 -0.35,3.01 0,0.91 0.7,1.54 1.61,1.54 0.28,0 2.17,-0.35 5.67,-0.98 l 3.99,-0.7 c 0.49,-0.07 1.26,-0.21 2.45,-0.42 l 1.12,-1.68 c -2.87,0.21 -4.62,0.35 -5.18,0.35 -2.8,0 -3.57,-0.7 -3.57,-3.15 0,-4.48 2.73,-24.08 4.97,-35.21 l -0.98,-0.7 c -2.1,2.17 -2.24,2.24 -3.71,2.24 -0.91,0 -1.26,-0.07 -3.99,-0.49 -3.15,-0.49 -4.97,-0.7 -6.37,-0.7 -3.22,0 -6.58,1.61 -9.87,4.83 -3.71,3.57 -5.32,6.65 -5.32,10.36 0,1.68 0.21,2.8 0.98,4.83 l 5.18,-2.8 c -1.12,-3.29 -1.47,-4.9 -1.47,-6.51 0,-3.99 3.01,-6.37 8.12,-6.37 0.77,0 1.68,0.07 2.59,0.14 l 1.68,0.21 c 0.98,0.07 1.68,0.14 2.17,0.21 1.12,0.14 1.75,0.14 3.64,0.28 l -12.11,15.68 c -2.94,3.78 -7.49,9.1 -9.38,10.92 -2.8,2.73 -4.9,3.71 -8.12,3.71 -1.19,0 -1.82,-0.07 -3.08,-0.49 z m 23.1,-15.26 13.51,-17.71 -2.87,17.71 z m 41.78988,15.82 c 1.82,0 1.89,0 4.06,0.07 h 2.38 c 0.42,0 1.33,0 2.45,0.07 4.69,0.07 4.69,0.07 5.95,0.07 4.83,0 8.4,-0.91 13.16,-3.22 6.3,-3.22 9.38,-7.21 9.38,-12.32 0,-2.17 -1.05,-4.2 -2.8,-5.53 -1.47,-1.12 -3.01,-1.54 -6.37,-1.96 7,-3.08 10.43,-6.93 10.43,-11.41 0,-4.69 -3.71,-6.65 -12.46,-6.65 h -1.05 l 0.56,-2.17 -5.67,2.45 c -6.02,0.91 -9.45,1.96 -12.6,3.85 -5.6,3.43 -8.47,8.33 -8.47,14.49 0,1.47 0.14,2.45 0.49,4.55 l 5.6,-2.59 c -0.63,-3.29 -0.7,-3.78 -0.7,-5.18 0,-4.76 1.47,-7.7 5.04,-10.01 2.73,-1.82 5.6,-2.66 10.01,-2.94 l -5.18,20.72 c -2.94,12.11 -4.13,13.65 -10.92,14.35 z m 20.02,-20.37 c 1.33,-0.14 1.96,-0.14 2.66,-0.14 5.53,0 8.61,2.45 8.61,6.79 0,2.66 -1.12,5.74 -2.87,7.7 -1.89,2.17 -4.69,3.29 -8.19,3.29 -1.89,0 -3.43,-0.14 -10.36,-0.91 6.86,-6.09 7.98,-7.77 9.45,-14.07 z m 4.62,-18.55 c 3.36,0.07 4.2,0.21 5.18,0.7 1.68,0.77 2.73,2.8 2.73,5.11 0,3.29 -1.61,6.65 -3.99,8.47 -2.17,1.61 -4.27,2.24 -8.05,2.31 z m 36.8899,10.22 c -2.8,0 -7.28,2.03 -11.41,5.11 -4.48,3.36 -7.63,10.64 -7.63,17.64 0,4.2 2.38,6.93 6.09,6.93 1.96,0 3.99,-0.7 7.14,-2.38 3.5,-1.96 5.81,-3.71 7.07,-5.32 2.8,-3.85 5.04,-10.71 5.04,-15.54 0,-3.78 -2.59,-6.44 -6.3,-6.44 z m -3.64,3.29 c 2.8,0 4.55,2.66 4.55,6.93 0,3.01 -0.98,6.58 -2.66,10.01 -2.03,3.99 -4.55,6.16 -7.21,6.16 -2.87,0 -4.69,-2.59 -4.69,-6.58 0,-8.12 5.11,-16.52 10.01,-16.52 z m 32.33997,-3.29 c -2.8,0 -7.28,2.03 -11.41,5.11 -4.48,3.36 -7.63,10.64 -7.63,17.64 0,4.2 2.38,6.93 6.09,6.93 1.96,0 3.99,-0.7 7.14,-2.38 3.5,-1.96 5.81,-3.71 7.07,-5.32 2.8,-3.85 5.04,-10.71 5.04,-15.54 0,-3.78 -2.59,-6.44 -6.3,-6.44 z m -3.64,3.29 c 2.8,0 4.55,2.66 4.55,6.93 0,3.01 -0.98,6.58 -2.66,10.01 -2.03,3.99 -4.55,6.16 -7.21,6.16 -2.87,0 -4.69,-2.59 -4.69,-6.58 0,-8.12 5.11,-16.52 10.01,-16.52 z m 13.29997,26.25 c 0.77,-0.28 1.47,-0.56 1.68,-0.63 0.42,-0.14 1.12,-0.35 1.89,-0.63 0.21,-0.07 0.84,-0.28 1.54,-0.49 l 2.73,-12.46 1.61,-0.98 c 1.4,3.22 1.68,3.85 3.92,9.1 3.01,7.14 4.83,10.01 7.7,12.25 3.01,2.31 7.35,3.78 11.06,3.78 3.22,0 5.46,-0.7 7.63,-2.45 l -1.4,-5.04 c -2.24,3.78 -4.27,5.25 -7.21,5.25 -2.31,0 -4.2,-1.12 -6.37,-3.71 -1.89,-2.24 -1.89,-2.24 -9.38,-18.13 l -2.03,-4.34 4.69,-4.27 c 2.8,-2.45 3.57,-2.94 4.9,-2.94 1.19,0 2.03,0.56 3.15,2.03 l 3.57,-5.32 c -1.4,-1.05 -2.38,-1.4 -3.92,-1.4 -1.89,0 -3.08,0.63 -5.18,2.59 -2.17,2.1 -2.24,2.17 -3.01,2.87 l -9.03,8.05 2.66,-10.71 c 2.24,-9.24 3.01,-11.48 4.2,-13.44 1.26,-2.03 3.08,-3.01 5.46,-3.01 0.63,0 1.19,0.07 2.45,0.28 l 2.8,-4.06 c -0.91,-0.14 -1.33,-0.21 -2.03,-0.21 -2.52,0 -4.13,0.56 -6.37,2.17 -4.48,3.15 -7.63,6.23 -8.54,8.26 -0.7,1.54 -2.03,6.16 -2.94,10.22 z"
     id="text1"
     class="english"
     style="font-weight:bold;font-size:70px;font-family:Z003;letter-spacing:0.01em;dominant-baseline:middle;text-anchor:end"
     aria-label="A Book" />
  <path
     d="m 694.87356,123.73379 c -5.32,3.22 -7.56,4.34 -8.54,4.34 -0.91,0 -2.03,-1.75 -2.03,-3.29 0,-0.98 0.07,-1.19 1.61,-7.84 0.35,-1.26 0.63,-2.59 0.91,-3.92 0.07,-0.21 0.35,-1.33 0.49,-1.96 2.38,-0.07 4.55,-0.21 6.93,-0.35 l 2.66,-2.03 h -8.96 c 0.35,-1.61 0.49,-2.1 0.7,-3.15 0.21,-0.7 0.7,-2.59 1.68,-6.370003 l 0.42,-1.82 -1.19,0.63 c -0.42,0.14 -0.98,0.42 -1.75,0.77 -0.49,0.28 -1.05,0.49 -1.61,0.77 -0.28,0.14 -0.56,0.28 -0.98,0.42 l -0.63,2.870003 -0.77,3.36 -0.56,2.52 c -0.63,0.07 -1.05,0.07 -1.26,0.07 h -1.68 c -0.14,0 -0.49,0 -1.05,0.07 -0.35,0.21 -0.63,0.42 -0.7,0.42 -0.21,0.14 -0.63,0.49 -1.33,1.05 -0.14,0.07 -0.49,0.42 -1.05,0.77 h 1.68 3.22 1.54 l -0.7,3.08 c -3.01,12.39 -3.01,12.39 -3.01,14.63 0,2.24 1.47,4.69 2.8,4.69 1.54,0 6.3,-2.87 13.02,-7.98 z m 22.9599,-19.95 c -2.8,0 -7.28,2.03 -11.41,5.11 -4.48,3.36 -7.63,10.64 -7.63,17.64 0,4.2 2.38,6.93 6.09,6.93 1.96,0 3.99,-0.7 7.14,-2.38 3.5,-1.96 5.81,-3.71 7.07,-5.32 2.8,-3.85 5.04,-10.71 5.04,-15.54 0,-3.78 -2.59,-6.44 -6.3,-6.44 z m -3.64,3.29 c 2.8,0 4.55,2.66 4.55,6.93 0,3.01 -0.98,6.58 -2.66,10.01 -2.03,3.99 -4.55,6.16 -7.21,6.16 -2.87,0 -4.69,-2.59 -4.69,-6.58 0,-8.12 5.11,-16.52 10.01,-16.52 z m 60.33992,21.07 c -6.44,4.41 -11.2,6.23 -16.1,6.23 -5.53,0 -9.03,-4.2 -9.03,-10.85 0,-14.56 10.29,-29.050003 20.65,-29.050003 4.2,0 6.3,2.59 6.72,8.120003 l 5.18,-4.410003 c -0.28,-2.24 -0.7,-3.36 -1.54,-4.41 -1.33,-1.61 -3.85,-2.59 -6.65,-2.59 -6.09,0 -13.16,3.57 -19.32,9.730003 -6.79,6.79 -10.78,16.1 -10.78,25.2 0,7.21 3.99,11.55 10.64,11.55 6.09,0 13.65,-2.8 19.74,-7.42 z m 23.1699,-4.83 c -5.32,3.64 -7.77,5.11 -8.68,5.11 -0.77,0 -1.33,-0.98 -1.33,-2.31 0,-1.61 0.56,-4.41 1.75,-8.89 0.7,-2.66 1.4,-5.32 1.47,-5.74 0.63,-2.66 1.12,-4.41 1.26,-4.9 0.21,-0.77 0.35,-1.47 0.35,-1.89 0,-0.56 -0.35,-0.91 -0.84,-0.91 -0.7,0 -5.74,2.73 -10.85,5.88 l -0.49,1.89 c 3.01,-1.54 4.27,-2.03 5.11,-2.03 0.56,0 0.98,0.49 0.98,1.33 0,0.98 -0.63,3.71 -1.96,8.68 -1.75,6.58 -2.17,8.47 -2.17,10.5 0,1.96 0.84,3.43 1.96,3.43 1.05,0 2.24,-0.63 5.81,-2.94 5.46,-3.5 5.46,-3.5 7.21,-4.69 -0.63,2.38 -0.98,4.76 -0.98,6.02 0,0.98 0.49,1.61 1.26,1.61 1.4,0 7.98,-3.85 12.81,-7.49 l 0.49,-2.1 c -4.97,2.94 -7.28,4.2 -8.05,4.2 -0.49,0 -0.77,-0.49 -0.77,-1.68 0,-3.57 2.52,-13.93 5.6,-22.89 -0.91,0.49 -1.54,0.84 -1.82,0.98 -0.84,0.42 -1.68,0.84 -2.59,1.19 -0.21,0.14 -0.63,0.35 -1.4,0.77 -0.49,1.75 -1.61,6.44 -3.43,14.07 z m 16.09993,9.94 5.39,-2.03 5.25,-19.95 c 2.38,-1.82 3.99,-2.45 5.88,-2.45 1.54,0 2.45,0.56 3.71,2.17 l 2.1,-6.65 c -1.26,-0.42 -1.89,-0.56 -2.59,-0.56 -1.33,0 -2.73,0.63 -4.62,1.96 -0.91,0.7 -1.82,1.4 -2.8,2.03 -0.42,0.35 -0.91,0.7 -1.33,0.98 l 0.84,-4.2 c 0,-0.42 -0.42,-0.77 -0.91,-0.77 -0.91,0 -7.07,3.01 -11.34,5.53 l -0.21,1.89 c 4.06,-1.96 4.13,-2.03 5.04,-2.03 0.91,0 1.33,0.49 1.33,1.47 0,0.98 -0.7,4.2 -1.54,7.28 z m 36.32986,-9.73 c -1.47,0.84 -1.47,0.84 -4.48,2.73 -2.03,1.26 -3.22,1.82 -3.99,1.82 -0.7,0 -1.26,-0.84 -1.26,-1.82 v -0.63 -0.63 c 0,-1.26 3.15,-14.84 5.74,-24.71 2.73,-10.360003 3.36,-11.550003 6.44,-11.550003 1.05,0 1.75,0.07 3.43,0.49 l 3.01,-3.71 c -1.47,-0.35 -2.17,-0.42 -3.15,-0.42 -2.8,0 -4.97,1.05 -8.4,4.13 -3.08,2.73 -3.85,3.85 -4.76,6.37 -0.56,1.68 -2.1,7.350003 -2.8,10.430003 l -5.04,21.91 c -0.07,0.42 -0.14,0.84 -0.14,1.26 0,2.17 1.19,4.27 2.31,4.27 h 0.42 0.21 c 0.42,0.21 2.66,-1.33 12.46,-8.4 z"
     id="text2"
     class="english"
     style="font-weight:bold;font-size:70px;font-family:Z003;letter-spacing:0.01em;dominant-baseline:middle;text-anchor:end"
     aria-label="to Curl" />
  <path
     d="m 807.01324,150.31911 c 0.56,-0.07 1.05,-0.07 1.26,-0.07 0.98,0 1.26,0 3.22,0.14 -0.49,2.1 -0.84,3.5 -0.91,3.99 -1.19,4.55 -2.31,9.03 -3.43,13.58 l -2.17,8.82 c -0.14,0.49 -0.56,2.1 -1.19,4.48 -5.74,3.08 -8.75,4.06 -12.39,4.06 -3.99,0 -6.51,-3.15 -6.51,-8.05 0,-7.84 4.97,-19.95 12.11,-29.54 l -0.42,-0.56 c -0.91,0.28 -0.98,0.35 -2.17,0.84 l -0.7,0.35 c -4.48,-0.77 -4.76,-0.77 -6.44,-0.77 -3.36,0 -6.02,0.84 -8.4,2.66 -4.48,3.5 -7.28,8.05 -7.28,11.97 0,1.96 0.49,3.71 2.03,6.79 l 4.69,-3.78 c -1.82,-3.36 -2.38,-5.11 -2.38,-6.93 0,-3.85 3.43,-6.72 8.12,-6.72 2.03,0 3.43,0.28 6.51,1.33 -8.05,12.67 -11.41,20.72 -11.41,27.09 0,5.11 3.08,8.54 7.7,8.54 3.85,0 8.33,-1.33 16.8,-4.97 -0.49,2.59 -0.56,2.87 -0.56,3.5 0,0.98 0.63,1.54 1.96,1.54 1.96,0 5.6,-0.56 10.64,-1.68 l 1.47,-1.75 c -2.17,0.21 -3.36,0.28 -5.04,0.28 -1.89,0 -2.59,-0.63 -2.59,-2.38 0,-3.15 3.5,-18.06 8.4,-35.63 -3.64,0.56 -4.13,0.63 -9.03,1.12 z m 9.16991,52.22 -2.1,2.24 c 1.26,0.07 2.1,0.07 2.38,0.07 l 5.04,0.07 4.48,0.07 c 0.56,0 1.54,0 3.29,-0.07 l 2.17,-1.75 -7.84,-0.42 c 0.91,-4.27 1.33,-6.3 1.61,-7.42 0.35,-1.47 0.63,-2.94 0.98,-4.48 l 0.77,-3.01 c 1.4,0.28 2.17,0.35 3.36,0.35 3.85,0 4.62,-0.35 10.08,-4.9 2.38,-1.89 3.22,-2.87 4.27,-4.9 2.24,-4.55 3.71,-10.01 3.71,-14 0,-3.36 -1.47,-5.53 -3.78,-5.53 -1.68,0 -4.06,1.05 -6.93,3.15 -3.08,2.24 -4.97,3.64 -5.74,4.13 0.98,-4.13 1.47,-6.23 1.47,-6.37 0,-0.42 -0.49,-0.91 -0.98,-0.91 -0.7,0 -6.37,3.01 -11.55,6.09 l -0.42,1.82 c 0.49,-0.21 1.47,-0.63 2.87,-1.19 1.33,-0.63 1.61,-0.7 2.17,-0.7 0.84,0 1.33,0.7 1.33,1.96 0,2.52 -4.13,20.51 -8.12,35.56 z m 12.46,-21.77 1.05,-4.76 1.05,-4.55 c 0.07,-0.35 0.28,-1.26 0.56,-2.52 5.67,-4.2 7.91,-5.39 9.73,-5.39 1.4,0 2.31,1.47 2.31,3.85 0,3.15 -0.98,7.14 -2.73,10.92 -1.89,4.2 -4.27,6.23 -7.14,6.23 -1.75,0 -3.64,-0.56 -5.32,-1.54 z"
     id="text3"
     class="english"
     style="font-weight:bold;font-size:70px;font-family:Z003;letter-spacing:0.01em;dominant-baseline:middle;text-anchor:end"
     aria-label="Up" />
  <path
     d="m 730.01332,260.84069 4.55,-1.4 c 10.29,-14.77 13.44,-19.39 21,-30.87 -0.14,8.4 -0.91,25.9 -1.54,32.27 l 4.48,-1.47 c 2.38,-3.64 3.22,-4.83 7.7,-10.36 13.3,-16.24 17.85,-24.22 17.85,-31.01 0,-1.96 -0.28,-3.08 -1.05,-4.62 -0.98,-0.56 -1.19,-0.63 -2.8,-1.12 -1.96,0.91 -2.73,1.4 -4.48,2.87 1.89,1.96 2.59,3.78 2.59,6.65 0,3.15 -1.12,6.86 -3.36,11.2 -2.8,5.39 -6.51,10.36 -15.05,20.37 0.21,-3.22 0.35,-5.39 0.35,-6.16 l 0.42,-9.87 c 0.21,-4.9 0.35,-8.05 0.98,-17.78 l -4.06,1.61 c -3.22,5.46 -15.4,23.52 -20.65,30.66 0.77,-5.67 3.5,-21.07 5.18,-29.47 1.47,-0.49 2.31,-0.98 3.64,-2.24 -13.58,0.14 -14.42,0.14 -16.94,0.98 -6.02,1.96 -9.94,6.79 -9.94,12.32 0,2.38 0.56,4.27 1.75,6.3 l 5.25,-3.29 c -1.68,-2.52 -2.31,-4.48 -2.31,-6.86 0,-2.94 1.4,-5.04 3.99,-5.95 1.68,-0.63 3.5,-0.77 8.61,-0.84 -0.7,4.83 -0.84,6.02 -1.47,9.8 -2.66,16.1 -3.64,22.12 -3.71,22.54 z m 62.85989,-44.31 c -1.96,1.54 -3.57,2.8 -4.83,3.64 0.49,1.47 1.12,2.66 2.66,4.9 1.96,-1.75 2.17,-1.96 4.55,-3.78 -0.21,-0.42 -0.35,-0.7 -0.91,-1.61 -0.42,-0.84 -0.49,-0.84 -1.05,-2.24 z m 2.66,35 -1.19,0.63 c -4.83,2.66 -5.67,3.01 -6.51,3.01 -0.77,0 -1.26,-0.77 -1.26,-1.96 0,-1.19 0,-1.19 2.31,-10.43 2.59,-10.64 2.59,-10.64 2.59,-11.2 0,-0.42 -0.35,-0.7 -0.84,-0.7 -1.19,0 -5.32,2.31 -11.06,6.16 l -0.14,1.96 c 4.27,-2.31 4.48,-2.38 5.11,-2.38 0.56,0 0.84,0.42 0.84,1.19 0,0.98 -0.21,1.96 -1.26,5.95 -3.29,12.18 -3.29,12.18 -3.29,14 0,1.68 0.63,2.8 1.68,2.8 1.19,0 3.08,-0.91 6.79,-3.29 1.33,-0.84 2.66,-1.68 3.99,-2.59 0.63,-0.35 1.12,-0.7 1.96,-1.19 z m 21.13998,-0.7 c -5.32,3.22 -7.56,4.34 -8.54,4.34 -0.91,0 -2.03,-1.75 -2.03,-3.29 0,-0.98 0.07,-1.19 1.61,-7.84 0.35,-1.26 0.63,-2.59 0.91,-3.92 0.07,-0.21 0.35,-1.33 0.49,-1.96 2.38,-0.07 4.55,-0.21 6.93,-0.35 l 2.66,-2.03 h -8.96 c 0.35,-1.61 0.49,-2.1 0.7,-3.15 0.21,-0.7 0.7,-2.59 1.68,-6.37 l 0.42,-1.82 -1.19,0.63 c -0.42,0.14 -0.98,0.42 -1.75,0.77 -0.49,0.28 -1.05,0.49 -1.61,0.77 -0.28,0.14 -0.56,0.28 -0.98,0.42 l -0.63,2.87 -0.77,3.36 -0.56,2.52 c -0.63,0.07 -1.05,0.07 -1.26,0.07 h -1.68 c -0.14,0 -0.49,0 -1.05,0.07 -0.35,0.21 -0.63,0.42 -0.7,0.42 -0.21,0.14 -0.63,0.49 -1.33,1.05 -0.14,0.07 -0.49,0.42 -1.05,0.77 h 1.68 3.22 1.54 l -0.7,3.08 c -3.01,12.39 -3.01,12.39 -3.01,14.63 0,2.24 1.47,4.69 2.8,4.69 1.54,0 6.3,-2.87 13.02,-7.98 z m 3.21996,9.45 4.97,-2.03 4.13,-16.31 c 0.7,-0.49 1.33,-0.84 1.68,-1.05 1.82,-1.19 3.08,-1.96 3.36,-2.1 4.62,-2.52 4.62,-2.52 5.25,-2.52 0.42,0 0.77,0.42 0.77,1.05 0,0.98 -0.28,2.31 -1.26,6.02 -2.03,7.91 -3.01,12.46 -3.01,14.35 0,0.91 0.28,1.68 1.05,3.01 3.85,-1.96 8.96,-5.18 12.74,-7.98 l 0.49,-2.03 c -5.81,3.43 -6.93,3.99 -7.84,3.99 -0.63,0 -1.05,-0.7 -1.05,-1.82 0,-1.89 0.35,-3.29 3.15,-13.58 1.82,-6.79 1.82,-6.79 1.82,-7.21 0,-0.7 -0.56,-1.19 -1.47,-1.19 -1.54,0 -6.09,2.52 -15.05,8.33 l 2.38,-9.38 c 1.68,-6.86 2.38,-9.03 3.29,-10.78 0.98,-1.96 2.45,-2.87 4.34,-2.87 0.91,0 1.47,0.07 4.2,0.63 l 3.01,-4.27 c -1.26,-0.28 -1.82,-0.35 -2.94,-0.35 -3.78,0 -5.81,1.05 -10.92,5.53 -3.64,3.22 -4.2,4.41 -6.37,13.65 z"
     id="text4"
     class="english"
     style="font-weight:bold;font-size:70px;font-family:Z003;letter-spacing:0.01em;dominant-baseline:middle;text-anchor:end"
     aria-label="With" />
  <path
     d="m 18.309882,460.55319 h 19.73877 v 61.62598 H 72.706855 V 537.0986 H 18.309882 Z m 58.736427,19.12354 H 95.400802 V 537.0986 H 77.046309 Z m 0,-22.35352 h 18.354493 v 14.9707 H 77.046309 Z m 59.197851,67.93213 q 5.896,0 8.97217,-4.30664 3.12744,-4.30664 3.12744,-12.50977 0,-8.20312 -3.12744,-12.50976 -3.07617,-4.30664 -8.97217,-4.30664 -5.89599,0 -9.0747,4.35791 -3.12745,4.30664 -3.12745,12.45849 0,8.15186 3.12745,12.50977 3.17871,4.30664 9.0747,4.30664 z m -12.20215,-37.17041 q 3.79395,-5.02441 8.40821,-7.38281 4.61426,-2.40967 10.61279,-2.40967 10.61279,0 17.43164,8.45947 6.81885,8.40821 6.81885,21.68701 0,13.27881 -6.81885,21.73829 -6.81885,8.4082 -17.43164,8.4082 -5.99853,0 -10.61279,-2.3584 -4.61426,-2.40967 -8.40821,-7.43408 v 8.30566 h -18.35449 v -79.77539 h 18.35449 z m 92.11289,7.229 q -2.40967,-1.12793 -4.81934,-1.64062 -2.3584,-0.56397 -4.76806,-0.56397 -7.0752,0 -10.92041,4.56299 -3.79395,4.51172 -3.79395,12.97119 v 26.45508 h -18.35449 v -57.42187 h 18.35449 v 9.43359 q 3.5376,-5.63965 8.10059,-8.20312 4.61425,-2.61475 11.02295,-2.61475 0.92285,0 1.99951,0.10254 1.07666,0.0513 3.12744,0.30762 z m 29.10264,-3.89648 q -6.10107,0 -9.33105,4.40918 -3.17871,4.35791 -3.17871,12.6123 0,8.2544 3.17871,12.66358 3.22998,4.35791 9.33105,4.35791 5.99854,0 9.17725,-4.35791 3.17871,-4.40918 3.17871,-12.66358 0,-8.25439 -3.17871,-12.6123 -3.17871,-4.40918 -9.17725,-4.40918 z m 0,-13.125 q 14.8169,0 23.12256,7.99805 8.35694,7.99804 8.35694,22.14843 0,14.15039 -8.35694,22.14844 -8.30566,7.99805 -23.12256,7.99805 -14.86816,0 -23.27636,-7.99805 -8.35694,-7.99805 -8.35694,-22.14844 0,-14.15039 8.35694,-22.14843 8.4082,-7.99805 23.27636,-7.99805 z"
     id="text5"
     class="esperanto"
     style="font-weight:bold;font-size:105px;font-family:'Noto Serif Georgian';letter-spacing:-0.07em;dominant-baseline:middle"
     aria-label="Libro" />
  <path
     d="m 70.528904,651.65326 v 30.14648 H 52.174412 v -79.26269 h 18.354492 v 8.4082 q 3.793945,-5.02441 8.408203,-7.38281 4.614258,-2.40967 10.612793,-2.40967 10.61279,0 17.43164,8.45947 6.81885,8.40821 6.81885,21.68702 0,13.2788 -6.81885,21.73828 -6.81885,8.4082 -17.43164,8.4082 -5.998535,0 -10.612793,-2.3584 -4.614258,-2.40967 -8.408203,-7.43408 z m 12.202148,-37.17041 q -5.895996,0 -9.074707,4.35791 -3.127441,4.30664 -3.127441,12.4585 0,8.15185 3.127441,12.50976 3.178711,4.30664 9.074707,4.30664 5.895996,0 8.972168,-4.30664 3.127442,-4.30664 3.127442,-12.50976 0,-8.20313 -3.127442,-12.50977 -3.076172,-4.30664 -8.972168,-4.30664 z m 64.581158,-0.20508 q -6.10108,0 -9.33106,4.40918 -3.17871,4.35791 -3.17871,12.61231 0,8.25439 3.17871,12.66357 3.22998,4.35791 9.33106,4.35791 5.99853,0 9.17724,-4.35791 3.17871,-4.40918 3.17871,-12.66357 0,-8.2544 -3.17871,-12.61231 -3.17871,-4.40918 -9.17724,-4.40918 z m 0,-13.125 q 14.81689,0 23.12255,7.99805 8.35694,7.99804 8.35694,22.14844 0,14.15039 -8.35694,22.14843 -8.30566,7.99805 -23.12255,7.99805 -14.86817,0 -23.27637,-7.99805 -8.35693,-7.99804 -8.35693,-22.14843 0,-14.1504 8.35693,-22.14844 8.4082,-7.99805 23.27637,-7.99805 z m 80.11582,17.02149 q -2.40967,-1.12793 -4.81934,-1.64063 -2.3584,-0.56396 -4.76806,-0.56396 -7.0752,0 -10.92041,4.56298 -3.79395,4.51172 -3.79395,12.9712 v 26.45507 h -18.35449 v -57.42187 h 18.35449 v 9.43359 q 3.5376,-5.63965 8.10059,-8.20312 4.61425,-2.61475 11.02295,-2.61475 0.92285,0 1.99951,0.10254 1.07666,0.0513 3.12744,0.30762 z"
     id="text6"
     class="esperanto"
     style="font-weight:bold;font-size:105px;font-family:'Noto Serif Georgian';letter-spacing:-0.07em;dominant-baseline:middle"
     aria-label="por" />
  <path
     d="m 18.309882,735.92981 h 19.73877 v 27.94189 l 28.45459,-27.94189 h 22.91748 l -36.862793,36.24756 40.656738,40.29785 H 68.502753 L 38.048652,782.32874 v 30.14648 H 18.309882 Z M 89.04338,790.1217 v -35.06836 h 18.45703 v 5.74219 q 0,4.66553 -0.0513,11.74072 -0.0513,7.02393 -0.0513,9.38233 0,6.92139 0.35889,9.99756 0.35889,3.0249 1.23047,4.40918 1.12793,1.79443 2.92236,2.76855 1.8457,0.97412 4.2041,0.97412 5.74219,0 9.02344,-4.40918 3.28125,-4.40918 3.28125,-12.25341 v -28.35206 h 18.35449 v 57.42188 h -18.35449 v -8.30566 q -4.15283,5.02441 -8.81836,7.43408 -4.61426,2.3584 -10.20264,2.3584 -9.946285,0 -15.175778,-6.10108 -5.178222,-6.10107 -5.178222,-17.73926 z m 125.7457,-12.6123 v 34.96582 h -18.45703 v -5.69092 -21.07178 q 0,-7.43408 -0.35888,-10.2539 -0.30762,-2.81983 -1.12793,-4.15283 -1.07666,-1.79444 -2.92237,-2.76856 -1.8457,-1.02539 -4.2041,-1.02539 -5.74219,0 -9.02344,4.46045 -3.28125,4.40918 -3.28125,12.25342 v 28.24951 h -18.35449 v -57.42188 h 18.35449 v 8.40821 q 4.15284,-5.02442 8.81836,-7.38281 4.66553,-2.40967 10.30518,-2.40967 9.94629,0 15.07324,6.10107 5.17822,6.10108 5.17822,17.73926 z m 2.44248,-22.45606 h 18.35449 l 14.3042,39.68262 14.25293,-39.68262 h 18.40576 l -22.60986,57.42188 h -20.14893 z m 95.6505,11.74073 q -6.10108,0 -9.33106,4.40918 -3.17871,4.35791 -3.17871,12.6123 0,8.2544 3.17871,12.66358 3.22998,4.35791 9.33106,4.35791 5.99853,0 9.17724,-4.35791 3.17871,-4.40918 3.17871,-12.66358 0,-8.25439 -3.17871,-12.6123 -3.17871,-4.40918 -9.17724,-4.40918 z m 0,-13.125 q 14.81689,0 23.12255,7.99804 8.35694,7.99805 8.35694,22.14844 0,14.15039 -8.35694,22.14844 -8.30566,7.99805 -23.12255,7.99805 -14.86817,0 -23.27637,-7.99805 -8.35693,-7.99805 -8.35693,-22.14844 0,-14.15039 8.35693,-22.14844 8.4082,-7.99804 23.27637,-7.99804 z m 37.45956,-20.96924 h 18.35449 v 79.77539 h -18.35449 z m 21.4122,22.35351 h 18.35449 l 14.3042,39.68262 14.25293,-39.68262 h 18.40576 l -22.60986,57.42188 h -20.14892 z m 68.32382,0 h 18.3545 v 57.42188 h -18.3545 z m 0,-22.35351 h 18.3545 v 14.9707 h -18.3545 z m 49.4054,-4.2041 h 12.40723 l 13.125,19.27734 h -9.12598 l -10.20264,-11.53564 -10.20263,11.53564 h -9.12598 z m 18.30322,74.23828 q -3.79394,5.02441 -8.35693,7.38281 -4.56299,2.3584 -10.56153,2.3584 -10.51025,0 -17.38037,-8.25439 -6.87011,-8.30567 -6.87011,-21.12305 0,-12.86865 6.87011,-21.07178 6.87012,-8.25439 17.38037,-8.25439 5.99854,0 10.56153,2.35839 4.56299,2.3584 8.35693,7.43409 v -8.51075 h 18.45703 v 51.62842 q 0,13.84278 -8.76709,21.12305 -8.71582,7.33154 -25.32715,7.33154 -5.3833,0 -10.40771,-0.82031 -5.02441,-0.82031 -10.1001,-2.51221 v -14.3042 q 4.81934,2.76856 9.4336,4.10157 4.61425,1.38427 9.27978,1.38427 9.02344,0 13.22754,-3.94775 4.2041,-3.94775 4.2041,-12.35596 z m -12.09961,-35.73486 q -5.69092,0 -8.86963,4.2041 -3.17871,4.2041 -3.17871,11.89453 0,7.89551 3.07617,11.99707 3.07618,4.05029 8.97217,4.05029 5.74219,0 8.9209,-4.2041 3.17871,-4.2041 3.17871,-11.84326 0,-7.69043 -3.17871,-11.89453 -3.17871,-4.2041 -8.9209,-4.2041 z m 40.84332,-11.94581 h 18.3545 v 57.42188 h -18.3545 z m 0,-22.35351 h 18.3545 v 14.9707 h -18.3545 z"
     id="text7"
     class="esperanto"
     style="font-weight:bold;font-size:105px;font-family:'Noto Serif Georgian';letter-spacing:-0.07em;dominant-baseline:middle"
     aria-label="KunvolviÄi" />
</svg>
